<svg width="16" height="16" viewBox="0 0 16 16" fill="none" xmlns="http://www.w3.org/2000/svg">
<g clip-path="url(#clip0_16_725)">
<path d="M6.62479 10.3333C6.56527 10.1026 6.44502 9.89203 6.27653 9.72355C6.10805 9.55507 5.8975 9.43481 5.66679 9.3753L1.57679 8.32063C1.50701 8.30082 1.4456 8.2588 1.40186 8.20093C1.35813 8.14305 1.33447 8.0725 1.33447 7.99996C1.33447 7.92743 1.35813 7.85687 1.40186 7.799C1.4456 7.74113 1.50701 7.6991 1.57679 7.6793L5.66679 6.62396C5.89742 6.5645 6.10792 6.44434 6.27639 6.27599C6.44486 6.10763 6.56517 5.89722 6.62479 5.66663L7.67946 1.57663C7.69906 1.50657 7.74105 1.44486 7.799 1.40089C7.85696 1.35693 7.92771 1.33313 8.00046 1.33313C8.0732 1.33313 8.14395 1.35693 8.20191 1.40089C8.25987 1.44486 8.30185 1.50657 8.32146 1.57663L9.37546 5.66663C9.43497 5.89734 9.55523 6.10789 9.72371 6.27637C9.89219 6.44486 10.1027 6.56511 10.3335 6.62463L14.4235 7.67863C14.4938 7.69803 14.5558 7.73997 14.6 7.79801C14.6442 7.85606 14.6682 7.927 14.6682 7.99996C14.6682 8.07292 14.6442 8.14387 14.6 8.20191C14.5558 8.25996 14.4938 8.3019 14.4235 8.3213L10.3335 9.3753C10.1027 9.43481 9.89219 9.55507 9.72371 9.72355C9.55523 9.89203 9.43497 10.1026 9.37546 10.3333L8.32079 14.4233C8.30118 14.4934 8.2592 14.5551 8.20124 14.599C8.14328 14.643 8.07254 14.6668 7.99979 14.6668C7.92704 14.6668 7.85629 14.643 7.79834 14.599C7.74038 14.5551 7.69839 14.4934 7.67879 14.4233L6.62479 10.3333Z" fill="#FFD147" stroke="#FFD147" stroke-linecap="round" stroke-linejoin="round"/>
<path d="M13.3335 2V4.66667" stroke="#FFD147" stroke-width="0.5" stroke-linecap="round" stroke-linejoin="round"/>
<path d="M14.6667 3.33337H12" stroke="#FFD147" stroke-width="0.5" stroke-linecap="round" stroke-linejoin="round"/>
<path d="M2.6665 11.3334V12.6667" stroke="#FFD147" stroke-width="0.5" stroke-linecap="round" stroke-linejoin="round"/>
<path d="M3.33333 12H2" stroke="#FFD147" stroke-width="0.5" stroke-linecap="round" stroke-linejoin="round"/>
</g>
<defs>
<clipPath id="clip0_16_725">
<rect width="16" height="16" fill="white"/>
</clipPath>
</defs>
</svg>
