<svg width="160" height="41" viewBox="0 0 160 41" fill="none" xmlns="http://www.w3.org/2000/svg">
<path d="M5.65427 33.072C5.36627 33.072 5.08627 33.036 4.81427 32.964C4.55027 32.884 4.31027 32.768 4.09427 32.616C3.88627 32.456 3.71827 32.26 3.59027 32.028C3.47027 31.788 3.41027 31.512 3.41027 31.2C3.41027 30.84 3.47427 30.536 3.60227 30.288C3.73827 30.04 3.91827 29.844 4.14227 29.7C4.36627 29.556 4.62627 29.452 4.92227 29.388C5.21827 29.324 5.52627 29.292 5.84627 29.292H7.70627C7.70627 28.932 7.65427 28.62 7.55027 28.356C7.45427 28.092 7.29427 27.888 7.07027 27.744C6.84627 27.592 6.55027 27.516 6.18227 27.516C5.95827 27.516 5.75027 27.54 5.55827 27.588C5.36627 27.636 5.20227 27.712 5.06627 27.816C4.93027 27.92 4.83027 28.06 4.76627 28.236H3.67427C3.73027 27.948 3.83827 27.704 3.99827 27.504C4.16627 27.296 4.36627 27.128 4.59827 27C4.83827 26.864 5.09427 26.764 5.36627 26.7C5.63827 26.636 5.91027 26.604 6.18227 26.604C7.09427 26.604 7.74227 26.872 8.12627 27.408C8.51027 27.944 8.70227 28.668 8.70227 29.58V33H7.85027L7.79027 32.196C7.61427 32.436 7.40227 32.62 7.15427 32.748C6.90627 32.876 6.65027 32.96 6.38627 33C6.13027 33.048 5.88627 33.072 5.65427 33.072ZM5.75027 32.172C6.15027 32.172 6.49427 32.108 6.78227 31.98C7.07827 31.844 7.30627 31.648 7.46627 31.392C7.62627 31.136 7.70627 30.824 7.70627 30.456V30.144H6.59027C6.32627 30.144 6.06627 30.148 5.81027 30.156C5.55427 30.164 5.32227 30.196 5.11427 30.252C4.90627 30.308 4.73827 30.404 4.61027 30.54C4.49027 30.676 4.43027 30.872 4.43027 31.128C4.43027 31.368 4.49027 31.564 4.61027 31.716C4.73827 31.868 4.90227 31.984 5.10227 32.064C5.31027 32.136 5.52627 32.172 5.75027 32.172ZM10.2825 35.28V26.676H11.2545L11.3025 27.624C11.5185 27.296 11.8105 27.044 12.1785 26.868C12.5545 26.692 12.9585 26.604 13.3905 26.604C14.0305 26.604 14.5545 26.748 14.9625 27.036C15.3705 27.316 15.6705 27.7 15.8625 28.188C16.0625 28.676 16.1625 29.228 16.1625 29.844C16.1625 30.46 16.0625 31.012 15.8625 31.5C15.6625 31.988 15.3545 32.372 14.9385 32.652C14.5225 32.932 13.9905 33.072 13.3425 33.072C13.0225 33.072 12.7345 33.04 12.4785 32.976C12.2225 32.904 11.9985 32.804 11.8065 32.676C11.6145 32.54 11.4465 32.384 11.3025 32.208V35.28H10.2825ZM13.2585 32.172C13.7225 32.172 14.0905 32.068 14.3625 31.86C14.6345 31.644 14.8305 31.36 14.9505 31.008C15.0785 30.656 15.1425 30.268 15.1425 29.844C15.1425 29.412 15.0785 29.02 14.9505 28.668C14.8305 28.316 14.6305 28.036 14.3505 27.828C14.0705 27.62 13.6985 27.516 13.2345 27.516C12.8185 27.516 12.4625 27.624 12.1665 27.84C11.8785 28.048 11.6585 28.332 11.5065 28.692C11.3545 29.044 11.2785 29.432 11.2785 29.856C11.2785 30.296 11.3505 30.692 11.4945 31.044C11.6385 31.396 11.8585 31.672 12.1545 31.872C12.4505 32.072 12.8185 32.172 13.2585 32.172ZM17.5247 33V24.516H18.5447V33H17.5247ZM20.1497 33V26.676H21.1697V33H20.1497ZM20.6537 25.74C20.4457 25.74 20.2777 25.676 20.1497 25.548C20.0297 25.42 19.9697 25.256 19.9697 25.056C19.9697 24.856 20.0337 24.696 20.1617 24.576C20.2897 24.448 20.4537 24.384 20.6537 24.384C20.8377 24.384 20.9977 24.448 21.1337 24.576C21.2777 24.704 21.3497 24.864 21.3497 25.056C21.3497 25.256 21.2817 25.42 21.1457 25.548C21.0097 25.676 20.8457 25.74 20.6537 25.74ZM25.4747 33.072C24.8107 33.072 24.2587 32.936 23.8187 32.664C23.3867 32.384 23.0627 32 22.8467 31.512C22.6387 31.024 22.5347 30.472 22.5347 29.856C22.5347 29.256 22.6427 28.712 22.8587 28.224C23.0827 27.728 23.4187 27.336 23.8667 27.048C24.3227 26.752 24.8987 26.604 25.5947 26.604C26.0267 26.604 26.4107 26.676 26.7467 26.82C27.0907 26.964 27.3747 27.176 27.5987 27.456C27.8227 27.728 27.9787 28.072 28.0667 28.488H27.0227C26.9027 28.136 26.7107 27.888 26.4467 27.744C26.1907 27.592 25.8867 27.516 25.5347 27.516C25.0547 27.516 24.6707 27.628 24.3827 27.852C24.0947 28.076 23.8827 28.368 23.7467 28.728C23.6187 29.08 23.5547 29.456 23.5547 29.856C23.5547 30.272 23.6227 30.656 23.7587 31.008C23.8947 31.36 24.1067 31.644 24.3947 31.86C24.6827 32.068 25.0547 32.172 25.5107 32.172C25.8467 32.172 26.1627 32.1 26.4587 31.956C26.7627 31.812 26.9627 31.556 27.0587 31.188H28.1147C28.0347 31.62 27.8627 31.976 27.5987 32.256C27.3427 32.536 27.0267 32.744 26.6507 32.88C26.2827 33.008 25.8907 33.072 25.4747 33.072ZM31.4355 33.072C31.1475 33.072 30.8675 33.036 30.5955 32.964C30.3315 32.884 30.0915 32.768 29.8755 32.616C29.6675 32.456 29.4995 32.26 29.3715 32.028C29.2515 31.788 29.1915 31.512 29.1915 31.2C29.1915 30.84 29.2555 30.536 29.3835 30.288C29.5195 30.04 29.6995 29.844 29.9235 29.7C30.1475 29.556 30.4075 29.452 30.7035 29.388C30.9995 29.324 31.3075 29.292 31.6275 29.292H33.4875C33.4875 28.932 33.4355 28.62 33.3315 28.356C33.2355 28.092 33.0755 27.888 32.8515 27.744C32.6275 27.592 32.3315 27.516 31.9635 27.516C31.7395 27.516 31.5315 27.54 31.3395 27.588C31.1475 27.636 30.9835 27.712 30.8475 27.816C30.7115 27.92 30.6115 28.06 30.5475 28.236H29.4555C29.5115 27.948 29.6195 27.704 29.7795 27.504C29.9475 27.296 30.1475 27.128 30.3795 27C30.6195 26.864 30.8755 26.764 31.1475 26.7C31.4195 26.636 31.6915 26.604 31.9635 26.604C32.8755 26.604 33.5235 26.872 33.9075 27.408C34.2915 27.944 34.4835 28.668 34.4835 29.58V33H33.6315L33.5715 32.196C33.3955 32.436 33.1835 32.62 32.9355 32.748C32.6875 32.876 32.4315 32.96 32.1675 33C31.9115 33.048 31.6675 33.072 31.4355 33.072ZM31.5315 32.172C31.9315 32.172 32.2755 32.108 32.5635 31.98C32.8595 31.844 33.0875 31.648 33.2475 31.392C33.4075 31.136 33.4875 30.824 33.4875 30.456V30.144H32.3715C32.1075 30.144 31.8475 30.148 31.5915 30.156C31.3355 30.164 31.1035 30.196 30.8955 30.252C30.6875 30.308 30.5195 30.404 30.3915 30.54C30.2715 30.676 30.2115 30.872 30.2115 31.128C30.2115 31.368 30.2715 31.564 30.3915 31.716C30.5195 31.868 30.6835 31.984 30.8835 32.064C31.0915 32.136 31.3075 32.172 31.5315 32.172ZM38.7638 33.072C38.0998 33.072 37.5478 32.936 37.1078 32.664C36.6758 32.384 36.3518 32 36.1358 31.512C35.9278 31.024 35.8238 30.472 35.8238 29.856C35.8238 29.256 35.9318 28.712 36.1478 28.224C36.3718 27.728 36.7078 27.336 37.1558 27.048C37.6118 26.752 38.1878 26.604 38.8838 26.604C39.3158 26.604 39.6998 26.676 40.0358 26.82C40.3798 26.964 40.6638 27.176 40.8878 27.456C41.1118 27.728 41.2678 28.072 41.3558 28.488H40.3118C40.1918 28.136 39.9998 27.888 39.7358 27.744C39.4798 27.592 39.1758 27.516 38.8238 27.516C38.3438 27.516 37.9598 27.628 37.6718 27.852C37.3838 28.076 37.1718 28.368 37.0358 28.728C36.9078 29.08 36.8438 29.456 36.8438 29.856C36.8438 30.272 36.9118 30.656 37.0478 31.008C37.1838 31.36 37.3958 31.644 37.6838 31.86C37.9718 32.068 38.3438 32.172 38.7998 32.172C39.1358 32.172 39.4518 32.1 39.7478 31.956C40.0518 31.812 40.2518 31.556 40.3478 31.188H41.4038C41.3238 31.62 41.1518 31.976 40.8878 32.256C40.6318 32.536 40.3158 32.744 39.9398 32.88C39.5718 33.008 39.1798 33.072 38.7638 33.072ZM38.5598 36.012C38.4478 36.028 38.3278 36.04 38.1998 36.048C38.0798 36.056 37.9518 36.06 37.8158 36.06V35.4C37.9518 35.4 38.0958 35.396 38.2478 35.388C38.3998 35.38 38.5438 35.356 38.6798 35.316C38.8158 35.276 38.9278 35.212 39.0158 35.124C39.1038 35.036 39.1478 34.916 39.1478 34.764C39.1478 34.628 39.0998 34.528 39.0038 34.464C38.9158 34.408 38.8158 34.372 38.7038 34.356C38.5998 34.348 38.5198 34.344 38.4638 34.344C38.3838 34.344 38.2838 34.352 38.1638 34.368C38.0518 34.384 37.9438 34.412 37.8398 34.452L38.1878 32.928H38.9318L38.7518 33.732C38.7998 33.724 38.8478 33.716 38.8958 33.708C38.9438 33.708 38.9878 33.708 39.0278 33.708C39.3398 33.708 39.5758 33.792 39.7358 33.96C39.8958 34.136 39.9758 34.376 39.9758 34.68C39.9758 34.968 39.9118 35.204 39.7838 35.388C39.6638 35.572 39.4958 35.712 39.2798 35.808C39.0718 35.904 38.8318 35.972 38.5598 36.012ZM44.7246 33.072C44.4366 33.072 44.1566 33.036 43.8846 32.964C43.6206 32.884 43.3806 32.768 43.1646 32.616C42.9566 32.456 42.7886 32.26 42.6606 32.028C42.5406 31.788 42.4806 31.512 42.4806 31.2C42.4806 30.84 42.5446 30.536 42.6726 30.288C42.8086 30.04 42.9886 29.844 43.2126 29.7C43.4366 29.556 43.6966 29.452 43.9926 29.388C44.2886 29.324 44.5966 29.292 44.9166 29.292H46.7766C46.7766 28.932 46.7246 28.62 46.6206 28.356C46.5246 28.092 46.3646 27.888 46.1406 27.744C45.9166 27.592 45.6206 27.516 45.2526 27.516C45.0286 27.516 44.8206 27.54 44.6286 27.588C44.4366 27.636 44.2726 27.712 44.1366 27.816C44.0006 27.92 43.9006 28.06 43.8366 28.236H42.7446C42.8006 27.948 42.9086 27.704 43.0686 27.504C43.2366 27.296 43.4366 27.128 43.6686 27C43.9086 26.864 44.1646 26.764 44.4366 26.7C44.7086 26.636 44.9806 26.604 45.2526 26.604C46.1646 26.604 46.8126 26.872 47.1966 27.408C47.5806 27.944 47.7726 28.668 47.7726 29.58V33H46.9206L46.8606 32.196C46.6846 32.436 46.4726 32.62 46.2246 32.748C45.9766 32.876 45.7206 32.96 45.4566 33C45.2006 33.048 44.9566 33.072 44.7246 33.072ZM44.8206 32.172C45.2206 32.172 45.5646 32.108 45.8526 31.98C46.1486 31.844 46.3766 31.648 46.5366 31.392C46.6966 31.136 46.7766 30.824 46.7766 30.456V30.144H45.6606C45.3966 30.144 45.1366 30.148 44.8806 30.156C44.6246 30.164 44.3926 30.196 44.1846 30.252C43.9766 30.308 43.8086 30.404 43.6806 30.54C43.5606 30.676 43.5006 30.872 43.5006 31.128C43.5006 31.368 43.5606 31.564 43.6806 31.716C43.8086 31.868 43.9726 31.984 44.1726 32.064C44.3806 32.136 44.5966 32.172 44.8206 32.172ZM46.0566 25.8C45.8566 25.8 45.6806 25.756 45.5286 25.668C45.3766 25.58 45.2366 25.48 45.1086 25.368C44.9886 25.256 44.8766 25.156 44.7726 25.068C44.6686 24.98 44.5686 24.936 44.4726 24.936C44.3526 24.936 44.2646 24.988 44.2086 25.092C44.1606 25.188 44.1326 25.3 44.1246 25.428C44.1166 25.548 44.1126 25.652 44.1126 25.74H43.2846C43.2846 25.476 43.3166 25.228 43.3806 24.996C43.4526 24.756 43.5726 24.56 43.7406 24.408C43.9166 24.256 44.1646 24.18 44.4846 24.18C44.6846 24.18 44.8606 24.224 45.0126 24.312C45.1646 24.4 45.3006 24.504 45.4206 24.624C45.5486 24.736 45.6646 24.836 45.7686 24.924C45.8726 25.012 45.9726 25.056 46.0686 25.056C46.2046 25.056 46.2966 25.008 46.3446 24.912C46.3926 24.808 46.4206 24.692 46.4286 24.564C46.4366 24.436 46.4406 24.328 46.4406 24.24H47.2806C47.2726 24.496 47.2326 24.744 47.1606 24.984C47.0966 25.224 46.9766 25.42 46.8006 25.572C46.6326 25.724 46.3846 25.8 46.0566 25.8ZM52.1128 33.072C51.4488 33.072 50.8928 32.936 50.4448 32.664C49.9968 32.384 49.6608 32 49.4368 31.512C49.2208 31.024 49.1128 30.468 49.1128 29.844C49.1128 29.212 49.2248 28.656 49.4488 28.176C49.6728 27.688 50.0088 27.304 50.4568 27.024C50.9048 26.744 51.4648 26.604 52.1368 26.604C52.8008 26.604 53.3528 26.744 53.7928 27.024C54.2408 27.304 54.5728 27.688 54.7888 28.176C55.0128 28.656 55.1248 29.212 55.1248 29.844C55.1248 30.468 55.0128 31.024 54.7888 31.512C54.5648 32 54.2288 32.384 53.7808 32.664C53.3408 32.936 52.7848 33.072 52.1128 33.072ZM52.1128 32.172C52.5768 32.172 52.9528 32.068 53.2408 31.86C53.5368 31.652 53.7528 31.372 53.8888 31.02C54.0328 30.668 54.1048 30.276 54.1048 29.844C54.1048 29.412 54.0328 29.02 53.8888 28.668C53.7528 28.316 53.5368 28.036 53.2408 27.828C52.9528 27.62 52.5768 27.516 52.1128 27.516C51.6568 27.516 51.2808 27.62 50.9848 27.828C50.6968 28.036 50.4808 28.316 50.3368 28.668C50.2008 29.02 50.1328 29.412 50.1328 29.844C50.1328 30.276 50.2008 30.668 50.3368 31.02C50.4808 31.372 50.6968 31.652 50.9848 31.86C51.2808 32.068 51.6568 32.172 52.1128 32.172ZM59.7239 35.28V26.676H60.6959L60.7439 27.624C60.9599 27.296 61.2519 27.044 61.6199 26.868C61.9959 26.692 62.3999 26.604 62.8319 26.604C63.4719 26.604 63.9959 26.748 64.4039 27.036C64.8119 27.316 65.1119 27.7 65.3039 28.188C65.5039 28.676 65.6039 29.228 65.6039 29.844C65.6039 30.46 65.5039 31.012 65.3039 31.5C65.1039 31.988 64.7959 32.372 64.3799 32.652C63.9639 32.932 63.4319 33.072 62.7839 33.072C62.4639 33.072 62.1759 33.04 61.9199 32.976C61.6639 32.904 61.4399 32.804 61.2479 32.676C61.0559 32.54 60.8879 32.384 60.7439 32.208V35.28H59.7239ZM62.6999 32.172C63.1639 32.172 63.5319 32.068 63.8039 31.86C64.0759 31.644 64.2719 31.36 64.3919 31.008C64.5199 30.656 64.5839 30.268 64.5839 29.844C64.5839 29.412 64.5199 29.02 64.3919 28.668C64.2719 28.316 64.0719 28.036 63.7919 27.828C63.5119 27.62 63.1399 27.516 62.6759 27.516C62.2599 27.516 61.9039 27.624 61.6079 27.84C61.3199 28.048 61.0999 28.332 60.9479 28.692C60.7959 29.044 60.7199 29.432 60.7199 29.856C60.7199 30.296 60.7919 30.692 60.9359 31.044C61.0799 31.396 61.2999 31.672 61.5959 31.872C61.8919 32.072 62.2599 32.172 62.6999 32.172ZM68.9941 33.072C68.7061 33.072 68.4261 33.036 68.1541 32.964C67.8901 32.884 67.6501 32.768 67.4341 32.616C67.2261 32.456 67.0581 32.26 66.9301 32.028C66.8101 31.788 66.7501 31.512 66.7501 31.2C66.7501 30.84 66.8141 30.536 66.9421 30.288C67.0781 30.04 67.2581 29.844 67.4821 29.7C67.7061 29.556 67.9661 29.452 68.2621 29.388C68.5581 29.324 68.8661 29.292 69.1861 29.292H71.0461C71.0461 28.932 70.9941 28.62 70.8901 28.356C70.7941 28.092 70.6341 27.888 70.4101 27.744C70.1861 27.592 69.8901 27.516 69.5221 27.516C69.2981 27.516 69.0901 27.54 68.8981 27.588C68.7061 27.636 68.5421 27.712 68.4061 27.816C68.2701 27.92 68.1701 28.06 68.1061 28.236H67.0141C67.0701 27.948 67.1781 27.704 67.3381 27.504C67.5061 27.296 67.7061 27.128 67.9381 27C68.1781 26.864 68.4341 26.764 68.7061 26.7C68.9781 26.636 69.2501 26.604 69.5221 26.604C70.4341 26.604 71.0821 26.872 71.4661 27.408C71.8501 27.944 72.0421 28.668 72.0421 29.58V33H71.1901L71.1301 32.196C70.9541 32.436 70.7421 32.62 70.4941 32.748C70.2461 32.876 69.9901 32.96 69.7261 33C69.4701 33.048 69.2261 33.072 68.9941 33.072ZM69.0901 32.172C69.4901 32.172 69.8341 32.108 70.1221 31.98C70.4181 31.844 70.6461 31.648 70.8061 31.392C70.9661 31.136 71.0461 30.824 71.0461 30.456V30.144H69.9301C69.6661 30.144 69.4061 30.148 69.1501 30.156C68.8941 30.164 68.6621 30.196 68.4541 30.252C68.2461 30.308 68.0781 30.404 67.9501 30.54C67.8301 30.676 67.7701 30.872 67.7701 31.128C67.7701 31.368 67.8301 31.564 67.9501 31.716C68.0781 31.868 68.2421 31.984 68.4421 32.064C68.6501 32.136 68.8661 32.172 69.0901 32.172ZM73.6224 33V26.676H74.6064L74.6544 27.66C74.8144 27.412 74.9984 27.212 75.2064 27.06C75.4224 26.908 75.6584 26.796 75.9144 26.724C76.1784 26.644 76.4624 26.604 76.7664 26.604C76.8224 26.604 76.8744 26.604 76.9224 26.604C76.9784 26.604 77.0344 26.604 77.0904 26.604V27.564H76.7184C76.2224 27.564 75.8184 27.672 75.5064 27.888C75.2024 28.096 74.9824 28.38 74.8464 28.74C74.7104 29.092 74.6424 29.484 74.6424 29.916V33H73.6224ZM80.1269 33.072C79.8389 33.072 79.5589 33.036 79.2869 32.964C79.0229 32.884 78.7829 32.768 78.5669 32.616C78.3589 32.456 78.1909 32.26 78.0629 32.028C77.9429 31.788 77.8829 31.512 77.8829 31.2C77.8829 30.84 77.9469 30.536 78.0749 30.288C78.2109 30.04 78.3909 29.844 78.6149 29.7C78.8389 29.556 79.0989 29.452 79.3949 29.388C79.6909 29.324 79.9989 29.292 80.3189 29.292H82.1789C82.1789 28.932 82.1269 28.62 82.0229 28.356C81.9269 28.092 81.7669 27.888 81.5429 27.744C81.3189 27.592 81.0229 27.516 80.6549 27.516C80.4309 27.516 80.2229 27.54 80.0309 27.588C79.8389 27.636 79.6749 27.712 79.5389 27.816C79.4029 27.92 79.3029 28.06 79.2389 28.236H78.1469C78.2029 27.948 78.3109 27.704 78.4709 27.504C78.6389 27.296 78.8389 27.128 79.0709 27C79.3109 26.864 79.5669 26.764 79.8389 26.7C80.1109 26.636 80.3829 26.604 80.6549 26.604C81.5669 26.604 82.2149 26.872 82.5989 27.408C82.9829 27.944 83.1749 28.668 83.1749 29.58V33H82.3229L82.2629 32.196C82.0869 32.436 81.8749 32.62 81.6269 32.748C81.3789 32.876 81.1229 32.96 80.8589 33C80.6029 33.048 80.3589 33.072 80.1269 33.072ZM80.2229 32.172C80.6229 32.172 80.9669 32.108 81.2549 31.98C81.5509 31.844 81.7789 31.648 81.9389 31.392C82.0989 31.136 82.1789 30.824 82.1789 30.456V30.144H81.0629C80.7989 30.144 80.5389 30.148 80.2829 30.156C80.0269 30.164 79.7949 30.196 79.5869 30.252C79.3789 30.308 79.2109 30.404 79.0829 30.54C78.9629 30.676 78.9029 30.872 78.9029 31.128C78.9029 31.368 78.9629 31.564 79.0829 31.716C79.2109 31.868 79.3749 31.984 79.5749 32.064C79.7829 32.136 79.9989 32.172 80.2229 32.172ZM90.6895 33.072C90.0255 33.072 89.4735 32.936 89.0335 32.664C88.6015 32.384 88.2775 32 88.0615 31.512C87.8535 31.024 87.7495 30.472 87.7495 29.856C87.7495 29.256 87.8575 28.712 88.0735 28.224C88.2975 27.728 88.6335 27.336 89.0815 27.048C89.5375 26.752 90.1135 26.604 90.8095 26.604C91.2415 26.604 91.6255 26.676 91.9615 26.82C92.3055 26.964 92.5895 27.176 92.8135 27.456C93.0375 27.728 93.1935 28.072 93.2815 28.488H92.2375C92.1175 28.136 91.9255 27.888 91.6615 27.744C91.4055 27.592 91.1015 27.516 90.7495 27.516C90.2695 27.516 89.8855 27.628 89.5975 27.852C89.3095 28.076 89.0975 28.368 88.9615 28.728C88.8335 29.08 88.7695 29.456 88.7695 29.856C88.7695 30.272 88.8375 30.656 88.9735 31.008C89.1095 31.36 89.3215 31.644 89.6095 31.86C89.8975 32.068 90.2695 32.172 90.7255 32.172C91.0615 32.172 91.3775 32.1 91.6735 31.956C91.9775 31.812 92.1775 31.556 92.2735 31.188H93.3295C93.2495 31.62 93.0775 31.976 92.8135 32.256C92.5575 32.536 92.2415 32.744 91.8655 32.88C91.4975 33.008 91.1055 33.072 90.6895 33.072ZM94.6224 33V26.676H95.6064L95.6544 27.66C95.8144 27.412 95.9984 27.212 96.2064 27.06C96.4224 26.908 96.6584 26.796 96.9144 26.724C97.1784 26.644 97.4624 26.604 97.7664 26.604C97.8224 26.604 97.8744 26.604 97.9224 26.604C97.9784 26.604 98.0344 26.604 98.0904 26.604V27.564H97.7184C97.2224 27.564 96.8184 27.672 96.5064 27.888C96.2024 28.096 95.9824 28.38 95.8464 28.74C95.7104 29.092 95.6424 29.484 95.6424 29.916V33H94.6224ZM101.742 33.072C101.078 33.072 100.522 32.936 100.074 32.664C99.6257 32.384 99.2897 32 99.0657 31.512C98.8497 31.024 98.7417 30.468 98.7417 29.844C98.7417 29.212 98.8537 28.656 99.0777 28.176C99.3017 27.688 99.6377 27.304 100.086 27.024C100.534 26.744 101.094 26.604 101.766 26.604C102.43 26.604 102.982 26.744 103.422 27.024C103.87 27.304 104.202 27.688 104.418 28.176C104.642 28.656 104.754 29.212 104.754 29.844C104.754 30.468 104.642 31.024 104.418 31.512C104.194 32 103.858 32.384 103.41 32.664C102.97 32.936 102.414 33.072 101.742 33.072ZM101.742 32.172C102.206 32.172 102.582 32.068 102.87 31.86C103.166 31.652 103.382 31.372 103.518 31.02C103.662 30.668 103.734 30.276 103.734 29.844C103.734 29.412 103.662 29.02 103.518 28.668C103.382 28.316 103.166 28.036 102.87 27.828C102.582 27.62 102.206 27.516 101.742 27.516C101.286 27.516 100.91 27.62 100.614 27.828C100.326 28.036 100.11 28.316 99.9657 28.668C99.8297 29.02 99.7617 29.412 99.7617 29.844C99.7617 30.276 99.8297 30.668 99.9657 31.02C100.11 31.372 100.326 31.652 100.614 31.86C100.91 32.068 101.286 32.172 101.742 32.172ZM106.118 33V26.676H107.102L107.15 27.636C107.294 27.404 107.478 27.212 107.702 27.06C107.926 26.908 108.17 26.796 108.434 26.724C108.706 26.644 108.97 26.604 109.226 26.604C109.842 26.604 110.322 26.732 110.666 26.988C111.018 27.244 111.266 27.592 111.41 28.032C111.562 28.464 111.638 28.956 111.638 29.508V33H110.618V29.784C110.618 29.488 110.598 29.204 110.558 28.932C110.526 28.66 110.454 28.416 110.342 28.2C110.238 27.984 110.086 27.816 109.886 27.696C109.686 27.568 109.418 27.504 109.082 27.504C108.666 27.504 108.31 27.62 108.014 27.852C107.726 28.084 107.506 28.396 107.354 28.788C107.21 29.18 107.138 29.62 107.138 30.108V33H106.118ZM115.968 33.072C115.304 33.072 114.748 32.936 114.3 32.664C113.852 32.384 113.516 32 113.292 31.512C113.076 31.024 112.968 30.468 112.968 29.844C112.968 29.212 113.08 28.656 113.304 28.176C113.528 27.688 113.864 27.304 114.312 27.024C114.76 26.744 115.32 26.604 115.992 26.604C116.656 26.604 117.208 26.744 117.648 27.024C118.096 27.304 118.428 27.688 118.644 28.176C118.868 28.656 118.98 29.212 118.98 29.844C118.98 30.468 118.868 31.024 118.644 31.512C118.42 32 118.084 32.384 117.636 32.664C117.196 32.936 116.64 33.072 115.968 33.072ZM115.968 32.172C116.432 32.172 116.808 32.068 117.096 31.86C117.392 31.652 117.608 31.372 117.744 31.02C117.888 30.668 117.96 30.276 117.96 29.844C117.96 29.412 117.888 29.02 117.744 28.668C117.608 28.316 117.392 28.036 117.096 27.828C116.808 27.62 116.432 27.516 115.968 27.516C115.512 27.516 115.136 27.62 114.84 27.828C114.552 28.036 114.336 28.316 114.192 28.668C114.056 29.02 113.988 29.412 113.988 29.844C113.988 30.276 114.056 30.668 114.192 31.02C114.336 31.372 114.552 31.652 114.84 31.86C115.136 32.068 115.512 32.172 115.968 32.172ZM122.373 33.072C122.085 33.072 121.805 33.036 121.533 32.964C121.269 32.884 121.029 32.768 120.813 32.616C120.605 32.456 120.437 32.26 120.309 32.028C120.189 31.788 120.129 31.512 120.129 31.2C120.129 30.84 120.193 30.536 120.321 30.288C120.457 30.04 120.637 29.844 120.861 29.7C121.085 29.556 121.345 29.452 121.641 29.388C121.937 29.324 122.245 29.292 122.565 29.292H124.425C124.425 28.932 124.373 28.62 124.269 28.356C124.173 28.092 124.013 27.888 123.789 27.744C123.565 27.592 123.269 27.516 122.901 27.516C122.677 27.516 122.469 27.54 122.277 27.588C122.085 27.636 121.921 27.712 121.785 27.816C121.649 27.92 121.549 28.06 121.485 28.236H120.393C120.449 27.948 120.557 27.704 120.717 27.504C120.885 27.296 121.085 27.128 121.317 27C121.557 26.864 121.813 26.764 122.085 26.7C122.357 26.636 122.629 26.604 122.901 26.604C123.813 26.604 124.461 26.872 124.845 27.408C125.229 27.944 125.421 28.668 125.421 29.58V33H124.569L124.509 32.196C124.333 32.436 124.121 32.62 123.873 32.748C123.625 32.876 123.369 32.96 123.105 33C122.849 33.048 122.605 33.072 122.373 33.072ZM122.469 32.172C122.869 32.172 123.213 32.108 123.501 31.98C123.797 31.844 124.025 31.648 124.185 31.392C124.345 31.136 124.425 30.824 124.425 30.456V30.144H123.309C123.045 30.144 122.785 30.148 122.529 30.156C122.273 30.164 122.041 30.196 121.833 30.252C121.625 30.308 121.457 30.404 121.329 30.54C121.209 30.676 121.149 30.872 121.149 31.128C121.149 31.368 121.209 31.564 121.329 31.716C121.457 31.868 121.621 31.984 121.821 32.064C122.029 32.136 122.245 32.172 122.469 32.172ZM127.001 33V26.676H127.985L128.033 27.636C128.177 27.404 128.361 27.212 128.585 27.06C128.809 26.908 129.053 26.796 129.317 26.724C129.589 26.644 129.853 26.604 130.109 26.604C130.725 26.604 131.205 26.732 131.549 26.988C131.901 27.244 132.149 27.592 132.293 28.032C132.445 28.464 132.521 28.956 132.521 29.508V33H131.501V29.784C131.501 29.488 131.481 29.204 131.441 28.932C131.409 28.66 131.337 28.416 131.225 28.2C131.121 27.984 130.969 27.816 130.769 27.696C130.569 27.568 130.301 27.504 129.965 27.504C129.549 27.504 129.193 27.62 128.897 27.852C128.609 28.084 128.389 28.396 128.237 28.788C128.093 29.18 128.021 29.62 128.021 30.108V33H127.001ZM136.119 33.072C135.831 33.072 135.551 33.036 135.279 32.964C135.015 32.884 134.775 32.768 134.559 32.616C134.351 32.456 134.183 32.26 134.055 32.028C133.935 31.788 133.875 31.512 133.875 31.2C133.875 30.84 133.939 30.536 134.067 30.288C134.203 30.04 134.383 29.844 134.607 29.7C134.831 29.556 135.091 29.452 135.387 29.388C135.683 29.324 135.991 29.292 136.311 29.292H138.171C138.171 28.932 138.119 28.62 138.015 28.356C137.919 28.092 137.759 27.888 137.535 27.744C137.311 27.592 137.015 27.516 136.647 27.516C136.423 27.516 136.215 27.54 136.023 27.588C135.831 27.636 135.667 27.712 135.531 27.816C135.395 27.92 135.295 28.06 135.231 28.236H134.139C134.195 27.948 134.303 27.704 134.463 27.504C134.631 27.296 134.831 27.128 135.063 27C135.303 26.864 135.559 26.764 135.831 26.7C136.103 26.636 136.375 26.604 136.647 26.604C137.559 26.604 138.207 26.872 138.591 27.408C138.975 27.944 139.167 28.668 139.167 29.58V33H138.315L138.255 32.196C138.079 32.436 137.867 32.62 137.619 32.748C137.371 32.876 137.115 32.96 136.851 33C136.595 33.048 136.351 33.072 136.119 33.072ZM136.215 32.172C136.615 32.172 136.959 32.108 137.247 31.98C137.543 31.844 137.771 31.648 137.931 31.392C138.091 31.136 138.171 30.824 138.171 30.456V30.144H137.055C136.791 30.144 136.531 30.148 136.275 30.156C136.019 30.164 135.787 30.196 135.579 30.252C135.371 30.308 135.203 30.404 135.075 30.54C134.955 30.676 134.895 30.872 134.895 31.128C134.895 31.368 134.955 31.564 135.075 31.716C135.203 31.868 135.367 31.984 135.567 32.064C135.775 32.136 135.991 32.172 136.215 32.172ZM136.203 25.668L137.223 23.976H138.327L137.127 25.668H136.203ZM140.747 33V24.516H141.767V33H140.747ZM143.372 33V26.676H144.392V33H143.372ZM143.876 25.74C143.668 25.74 143.5 25.676 143.372 25.548C143.252 25.42 143.192 25.256 143.192 25.056C143.192 24.856 143.256 24.696 143.384 24.576C143.512 24.448 143.676 24.384 143.876 24.384C144.06 24.384 144.22 24.448 144.356 24.576C144.5 24.704 144.572 24.864 144.572 25.056C144.572 25.256 144.504 25.42 144.368 25.548C144.232 25.676 144.068 25.74 143.876 25.74ZM148.301 33.072C148.013 33.072 147.721 33.044 147.425 32.988C147.137 32.932 146.865 32.836 146.609 32.7C146.361 32.564 146.153 32.38 145.985 32.148C145.817 31.916 145.709 31.628 145.661 31.284H146.693C146.773 31.5 146.901 31.676 147.077 31.812C147.261 31.94 147.465 32.032 147.689 32.088C147.921 32.144 148.141 32.172 148.349 32.172C148.477 32.172 148.625 32.164 148.793 32.148C148.961 32.132 149.121 32.096 149.273 32.04C149.433 31.976 149.561 31.884 149.657 31.764C149.761 31.644 149.813 31.476 149.813 31.26C149.813 31.1 149.777 30.968 149.705 30.864C149.633 30.76 149.533 30.676 149.405 30.612C149.277 30.54 149.121 30.488 148.937 30.456C148.561 30.376 148.157 30.3 147.725 30.228C147.301 30.156 146.925 30.02 146.597 29.82C146.485 29.748 146.381 29.668 146.285 29.58C146.197 29.484 146.121 29.38 146.057 29.268C145.993 29.148 145.941 29.02 145.901 28.884C145.869 28.74 145.853 28.584 145.853 28.416C145.853 28.104 145.913 27.836 146.033 27.612C146.161 27.38 146.337 27.192 146.561 27.048C146.785 26.896 147.041 26.784 147.329 26.712C147.625 26.64 147.941 26.604 148.277 26.604C148.693 26.604 149.065 26.672 149.393 26.808C149.729 26.936 150.005 27.128 150.221 27.384C150.437 27.632 150.565 27.94 150.605 28.308H149.657C149.601 28.076 149.449 27.888 149.201 27.744C148.953 27.592 148.637 27.516 148.253 27.516C148.125 27.516 147.981 27.528 147.821 27.552C147.661 27.568 147.509 27.608 147.365 27.672C147.221 27.728 147.101 27.816 147.005 27.936C146.909 28.048 146.861 28.2 146.861 28.392C146.861 28.568 146.905 28.716 146.993 28.836C147.089 28.956 147.221 29.052 147.389 29.124C147.557 29.196 147.749 29.256 147.965 29.304C148.245 29.36 148.553 29.42 148.889 29.484C149.225 29.54 149.489 29.6 149.681 29.664C149.937 29.744 150.149 29.856 150.317 30C150.493 30.144 150.621 30.316 150.701 30.516C150.789 30.716 150.833 30.948 150.833 31.212C150.833 31.588 150.757 31.896 150.605 32.136C150.461 32.376 150.265 32.564 150.017 32.7C149.769 32.836 149.493 32.932 149.189 32.988C148.893 33.044 148.597 33.072 148.301 33.072ZM154.839 33.072C154.167 33.072 153.611 32.936 153.171 32.664C152.731 32.384 152.403 32 152.187 31.512C151.971 31.024 151.863 30.468 151.863 29.844C151.863 29.212 151.975 28.656 152.199 28.176C152.431 27.688 152.767 27.304 153.207 27.024C153.647 26.744 154.187 26.604 154.827 26.604C155.323 26.604 155.747 26.7 156.099 26.892C156.459 27.076 156.755 27.324 156.987 27.636C157.219 27.948 157.387 28.292 157.491 28.668C157.595 29.036 157.639 29.408 157.623 29.784C157.615 29.856 157.607 29.928 157.599 30C157.599 30.072 157.595 30.144 157.587 30.216H152.895C152.927 30.584 153.019 30.916 153.171 31.212C153.323 31.508 153.539 31.744 153.819 31.92C154.099 32.088 154.447 32.172 154.863 32.172C155.071 32.172 155.279 32.148 155.487 32.1C155.703 32.044 155.895 31.952 156.063 31.824C156.239 31.696 156.363 31.524 156.435 31.308H157.479C157.383 31.716 157.203 32.052 156.939 32.316C156.675 32.572 156.359 32.764 155.991 32.892C155.623 33.012 155.239 33.072 154.839 33.072ZM152.919 29.328H156.579C156.571 28.968 156.491 28.652 156.339 28.38C156.187 28.108 155.979 27.896 155.715 27.744C155.459 27.592 155.151 27.516 154.791 27.516C154.399 27.516 154.067 27.6 153.795 27.768C153.531 27.936 153.327 28.156 153.183 28.428C153.039 28.7 152.951 29 152.919 29.328Z" fill="#5F6368"/>
<path d="M5.4 19V5.2H0.216V2.008H14.064V5.2H8.856V19H5.4Z" fill="#0077B6"/>
<path d="M95.048 19.192C93.304 19.192 91.816 18.84 90.584 18.136C89.368 17.416 88.44 16.408 87.8 15.112C87.176 13.816 86.864 12.304 86.864 10.576C86.864 8.816 87.184 7.28 87.824 5.968C88.48 4.656 89.416 3.64 90.632 2.92C91.848 2.184 93.312 1.816 95.024 1.816C96.32 1.816 97.48 2.04 98.504 2.488C99.528 2.92 100.352 3.568 100.976 4.432C101.616 5.28 102.016 6.328 102.176 7.576H98.864C98.656 6.792 98.232 6.176 97.592 5.728C96.968 5.264 96.136 5.032 95.096 5.032C93.944 5.032 93.024 5.296 92.336 5.824C91.664 6.336 91.176 7.008 90.872 7.84C90.568 8.656 90.416 9.52 90.416 10.432C90.416 11.376 90.576 12.272 90.896 13.12C91.216 13.968 91.72 14.656 92.408 15.184C93.112 15.712 94.032 15.976 95.168 15.976C95.84 15.976 96.44 15.88 96.968 15.688C97.496 15.48 97.928 15.184 98.264 14.8C98.616 14.416 98.856 13.96 98.984 13.432H102.416C102.272 14.664 101.856 15.712 101.168 16.576C100.48 17.44 99.608 18.096 98.552 18.544C97.496 18.976 96.328 19.192 95.048 19.192Z" fill="#0077B6"/>
<path d="M6.4 19V5.2H1.216V2.008H15.064V5.2H9.856V19H6.4ZM16.1247 19V6.352H19.1487L19.3647 7.864C19.6847 7.384 20.0447 7.024 20.4447 6.784C20.8447 6.528 21.2607 6.36 21.6927 6.28C22.1247 6.184 22.5647 6.136 23.0127 6.136C23.2207 6.136 23.4127 6.144 23.5887 6.16C23.7647 6.16 23.8927 6.16 23.9727 6.16V9.4H23.1807C22.4287 9.4 21.7727 9.528 21.2127 9.784C20.6527 10.04 20.2207 10.44 19.9167 10.984C19.6287 11.528 19.4847 12.224 19.4847 13.072V19H16.1247ZM29.5546 19.168C28.9786 19.168 28.4186 19.096 27.8746 18.952C27.3466 18.792 26.8746 18.552 26.4586 18.232C26.0426 17.912 25.7146 17.512 25.4746 17.032C25.2346 16.552 25.1146 15.992 25.1146 15.352C25.1146 14.488 25.2906 13.8 25.6426 13.288C25.9946 12.76 26.4666 12.36 27.0586 12.088C27.6506 11.816 28.3306 11.632 29.0986 11.536C29.8826 11.44 30.6906 11.392 31.5226 11.392H33.3466C33.3466 10.928 33.2586 10.52 33.0826 10.168C32.9226 9.8 32.6746 9.52 32.3386 9.328C32.0026 9.12 31.5706 9.016 31.0426 9.016C30.7066 9.016 30.3786 9.064 30.0586 9.16C29.7546 9.24 29.4986 9.36 29.2906 9.52C29.0826 9.68 28.9466 9.888 28.8826 10.144H25.4746C25.5706 9.44 25.7946 8.84 26.1466 8.344C26.4986 7.832 26.9386 7.416 27.4666 7.096C27.9946 6.776 28.5706 6.544 29.1946 6.4C29.8346 6.24 30.4906 6.16 31.1626 6.16C33.0026 6.16 34.3626 6.688 35.2426 7.744C36.1226 8.784 36.5626 10.264 36.5626 12.184V19H33.5386L33.4906 17.368C33.0906 17.928 32.6346 18.336 32.1226 18.592C31.6266 18.848 31.1466 19.008 30.6826 19.072C30.2186 19.136 29.8426 19.168 29.5546 19.168ZM30.3226 16.504C30.8826 16.504 31.3946 16.392 31.8586 16.168C32.3226 15.944 32.6906 15.64 32.9626 15.256C33.2346 14.872 33.3706 14.44 33.3706 13.96V13.648H31.0666C30.7306 13.648 30.4026 13.664 30.0826 13.696C29.7786 13.728 29.4986 13.792 29.2426 13.888C29.0026 13.968 28.8106 14.104 28.6666 14.296C28.5226 14.488 28.4506 14.744 28.4506 15.064C28.4506 15.384 28.5306 15.656 28.6906 15.88C28.8666 16.088 29.0986 16.248 29.3866 16.36C29.6746 16.456 29.9866 16.504 30.3226 16.504ZM44.8512 19.168C43.5552 19.168 42.4432 18.904 41.5152 18.376C40.6032 17.848 39.9072 17.104 39.4272 16.144C38.9472 15.168 38.7072 14.024 38.7072 12.712C38.7072 11.384 38.9552 10.232 39.4512 9.256C39.9472 8.264 40.6592 7.496 41.5872 6.952C42.5312 6.408 43.6672 6.136 44.9952 6.136C46.0192 6.136 46.9312 6.32 47.7312 6.688C48.5312 7.056 49.1712 7.584 49.6512 8.272C50.1472 8.96 50.4352 9.808 50.5152 10.816H47.2272C47.0832 10.256 46.8032 9.848 46.3872 9.592C45.9872 9.336 45.5072 9.208 44.9472 9.208C44.2272 9.208 43.6512 9.384 43.2192 9.736C42.8032 10.088 42.4992 10.536 42.3072 11.08C42.1312 11.624 42.0432 12.168 42.0432 12.712C42.0432 13.304 42.1392 13.864 42.3312 14.392C42.5232 14.904 42.8272 15.328 43.2432 15.664C43.6752 15.984 44.2352 16.144 44.9232 16.144C45.4992 16.144 46.0032 16.016 46.4352 15.76C46.8672 15.488 47.1472 15.072 47.2752 14.512H50.6352C50.5552 15.552 50.2432 16.416 49.6992 17.104C49.1552 17.792 48.4592 18.312 47.6112 18.664C46.7792 19 45.8592 19.168 44.8512 19.168ZM57.8238 19.168C56.3998 19.168 55.3438 18.768 54.6558 17.968C53.9838 17.168 53.6478 16.072 53.6478 14.68V9.352H51.7518V6.352H53.6478V2.944H57.0078V6.352H60.8478V9.352H57.0078V13.984C57.0078 14.4 57.0558 14.76 57.1518 15.064C57.2638 15.368 57.4398 15.608 57.6797 15.784C57.9358 15.944 58.2798 16.024 58.7118 16.024C59.0958 16.024 59.4158 15.968 59.6718 15.856C59.9438 15.728 60.1678 15.592 60.3438 15.448L61.3998 18.04C61.0638 18.312 60.6878 18.536 60.2718 18.712C59.8718 18.872 59.4638 18.984 59.0478 19.048C58.6318 19.128 58.2238 19.168 57.8238 19.168ZM68.6928 19.168C67.4128 19.168 66.2928 18.912 65.3328 18.4C64.3728 17.872 63.6288 17.128 63.1008 16.168C62.5728 15.192 62.3088 14.04 62.3088 12.712C62.3088 11.352 62.5728 10.184 63.1008 9.208C63.6448 8.216 64.3968 7.456 65.3568 6.928C66.3168 6.4 67.4208 6.136 68.6688 6.136C69.9488 6.136 71.0608 6.408 72.0048 6.952C72.9488 7.496 73.6848 8.256 74.2128 9.232C74.7408 10.208 75.0048 11.376 75.0048 12.736C75.0048 14.064 74.7408 15.216 74.2128 16.192C73.7008 17.152 72.9728 17.888 72.0288 18.4C71.1008 18.912 69.9888 19.168 68.6928 19.168ZM68.6448 16.096C69.3808 16.096 69.9728 15.936 70.4208 15.616C70.8688 15.296 71.1888 14.88 71.3808 14.368C71.5888 13.84 71.6928 13.288 71.6928 12.712C71.6928 12.136 71.5888 11.584 71.3808 11.056C71.1888 10.528 70.8688 10.096 70.4208 9.76C69.9888 9.408 69.3968 9.232 68.6448 9.232C67.9248 9.232 67.3408 9.408 66.8928 9.76C66.4448 10.096 66.1168 10.528 65.9088 11.056C65.7168 11.584 65.6208 12.136 65.6208 12.712C65.6208 13.304 65.7168 13.856 65.9088 14.368C66.1168 14.88 66.4448 15.296 66.8928 15.616C67.3408 15.936 67.9248 16.096 68.6448 16.096ZM77.1559 19V6.352H80.1799L80.3959 7.864C80.7159 7.384 81.0759 7.024 81.4759 6.784C81.8759 6.528 82.2919 6.36 82.7239 6.28C83.1559 6.184 83.5959 6.136 84.0439 6.136C84.2519 6.136 84.4439 6.144 84.6199 6.16C84.7959 6.16 84.9239 6.16 85.0039 6.16V9.4H84.2119C83.4599 9.4 82.8039 9.528 82.2439 9.784C81.6839 10.04 81.2519 10.44 80.9479 10.984C80.6599 11.528 80.5159 12.224 80.5159 13.072V19H77.1559ZM94.3058 19.192C92.5618 19.192 91.0738 18.84 89.8418 18.136C88.6258 17.416 87.6978 16.408 87.0578 15.112C86.4338 13.816 86.1218 12.304 86.1218 10.576C86.1218 8.816 86.4418 7.28 87.0818 5.968C87.7378 4.656 88.6738 3.64 89.8898 2.92C91.1058 2.184 92.5698 1.816 94.2818 1.816C95.5778 1.816 96.7378 2.04 97.7618 2.488C98.7858 2.92 99.6098 3.568 100.234 4.432C100.874 5.28 101.274 6.328 101.434 7.576H98.1218C97.9138 6.792 97.4898 6.176 96.8498 5.728C96.2258 5.264 95.3938 5.032 94.3538 5.032C93.2018 5.032 92.2818 5.296 91.5938 5.824C90.9218 6.336 90.4338 7.008 90.1298 7.84C89.8258 8.656 89.6738 9.52 89.6738 10.432C89.6738 11.376 89.8338 12.272 90.1538 13.12C90.4738 13.968 90.9778 14.656 91.6658 15.184C92.3698 15.712 93.2898 15.976 94.4258 15.976C95.0978 15.976 95.6978 15.88 96.2258 15.688C96.7538 15.48 97.1858 15.184 97.5218 14.8C97.8738 14.416 98.1138 13.96 98.2418 13.432H101.674C101.53 14.664 101.114 15.712 100.426 16.576C99.7378 17.44 98.8658 18.096 97.8098 18.544C96.7538 18.976 95.5858 19.192 94.3058 19.192ZM103.711 19V6.352H106.735L106.951 7.864C107.271 7.384 107.631 7.024 108.031 6.784C108.431 6.528 108.847 6.36 109.279 6.28C109.711 6.184 110.151 6.136 110.599 6.136C110.807 6.136 110.999 6.144 111.175 6.16C111.351 6.16 111.479 6.16 111.559 6.16V9.4H110.767C110.015 9.4 109.359 9.528 108.799 9.784C108.239 10.04 107.807 10.44 107.503 10.984C107.215 11.528 107.071 12.224 107.071 13.072V19H103.711ZM118.802 19.168C117.522 19.168 116.402 18.912 115.442 18.4C114.482 17.872 113.738 17.128 113.21 16.168C112.682 15.192 112.418 14.04 112.418 12.712C112.418 11.352 112.682 10.184 113.21 9.208C113.754 8.216 114.506 7.456 115.466 6.928C116.426 6.4 117.53 6.136 118.778 6.136C120.058 6.136 121.17 6.408 122.114 6.952C123.058 7.496 123.794 8.256 124.322 9.232C124.85 10.208 125.114 11.376 125.114 12.736C125.114 14.064 124.85 15.216 124.322 16.192C123.81 17.152 123.082 17.888 122.138 18.4C121.21 18.912 120.098 19.168 118.802 19.168ZM118.754 16.096C119.49 16.096 120.082 15.936 120.53 15.616C120.978 15.296 121.298 14.88 121.49 14.368C121.698 13.84 121.802 13.288 121.802 12.712C121.802 12.136 121.698 11.584 121.49 11.056C121.298 10.528 120.978 10.096 120.53 9.76C120.098 9.408 119.506 9.232 118.754 9.232C118.034 9.232 117.45 9.408 117.002 9.76C116.554 10.096 116.226 10.528 116.018 11.056C115.826 11.584 115.73 12.136 115.73 12.712C115.73 13.304 115.826 13.856 116.018 14.368C116.226 14.88 116.554 15.296 117.002 15.616C117.45 15.936 118.034 16.096 118.754 16.096ZM127.265 19V6.352H130.409L130.577 7.816C130.929 7.384 131.329 7.048 131.777 6.808C132.241 6.552 132.705 6.376 133.169 6.28C133.649 6.184 134.081 6.136 134.465 6.136C135.681 6.136 136.625 6.4 137.297 6.928C137.985 7.456 138.473 8.168 138.761 9.064C139.065 9.944 139.217 10.928 139.217 12.016V19H135.857V12.448C135.857 12.064 135.825 11.68 135.761 11.296C135.697 10.912 135.577 10.56 135.401 10.24C135.241 9.92 135.009 9.664 134.705 9.472C134.401 9.28 134.001 9.184 133.505 9.184C132.865 9.184 132.329 9.344 131.897 9.664C131.465 9.984 131.145 10.416 130.937 10.96C130.729 11.504 130.625 12.104 130.625 12.76V19H127.265Z" fill="#13A5DF"/>
<path d="M94 4V11.8571L99 15" stroke="#0077B6" stroke-width="2" stroke-linecap="round" stroke-linejoin="round"/>
</svg>
