<svg width="36" height="36" viewBox="0 0 36 36" fill="none" xmlns="http://www.w3.org/2000/svg">
<rect width="36" height="36" rx="8" fill="#B3E5FC"/>
<path d="M18.8566 26.192C17.1126 26.192 15.6246 25.84 14.3926 25.136C13.1766 24.416 12.2486 23.408 11.6086 22.112C10.9846 20.816 10.6726 19.304 10.6726 17.576C10.6726 15.816 10.9926 14.28 11.6326 12.968C12.2886 11.656 13.2246 10.64 14.4406 9.92C15.6566 9.184 17.1206 8.816 18.8326 8.816C20.1286 8.816 21.2886 9.04 22.3126 9.488C23.3366 9.92 24.1606 10.568 24.7846 11.432C25.4246 12.28 25.8246 13.328 25.9846 14.576H22.6726C22.4646 13.792 22.0406 13.176 21.4006 12.728C20.7766 12.264 19.9446 12.032 18.9046 12.032C17.7526 12.032 16.8326 12.296 16.1446 12.824C15.4726 13.336 14.9846 14.008 14.6806 14.84C14.3766 15.656 14.2246 16.52 14.2246 17.432C14.2246 18.376 14.3846 19.272 14.7046 20.12C15.0246 20.968 15.5286 21.656 16.2166 22.184C16.9206 22.712 17.8406 22.976 18.9766 22.976C19.6486 22.976 20.2486 22.88 20.7766 22.688C21.3046 22.48 21.7366 22.184 22.0726 21.8C22.4246 21.416 22.6646 20.96 22.7926 20.432H26.2246C26.0806 21.664 25.6646 22.712 24.9766 23.576C24.2886 24.44 23.4166 25.096 22.3606 25.544C21.3046 25.976 20.1366 26.192 18.8566 26.192Z" fill="#0077B6"/>
<path d="M18.1066 26.192C16.3626 26.192 14.8746 25.84 13.6426 25.136C12.4266 24.416 11.4986 23.408 10.8586 22.112C10.2346 20.816 9.92259 19.304 9.92259 17.576C9.92259 15.816 10.2426 14.28 10.8826 12.968C11.5386 11.656 12.4746 10.64 13.6906 9.92C14.9066 9.184 16.3706 8.816 18.0826 8.816C19.3786 8.816 20.5386 9.04 21.5626 9.488C22.5866 9.92 23.4106 10.568 24.0346 11.432C24.6746 12.28 25.0746 13.328 25.2346 14.576H21.9226C21.7146 13.792 21.2906 13.176 20.6506 12.728C20.0266 12.264 19.1946 12.032 18.1546 12.032C17.0026 12.032 16.0826 12.296 15.3946 12.824C14.7226 13.336 14.2346 14.008 13.9306 14.84C13.6266 15.656 13.4746 16.52 13.4746 17.432C13.4746 18.376 13.6346 19.272 13.9546 20.12C14.2746 20.968 14.7786 21.656 15.4666 22.184C16.1706 22.712 17.0906 22.976 18.2266 22.976C18.8986 22.976 19.4986 22.88 20.0266 22.688C20.5546 22.48 20.9866 22.184 21.3226 21.8C21.6746 21.416 21.9146 20.96 22.0426 20.432H25.4746C25.3306 21.664 24.9146 22.712 24.2266 23.576C23.5386 24.44 22.6666 25.096 21.6106 25.544C20.5546 25.976 19.3866 26.192 18.1066 26.192Z" fill="#13A5DF"/>
<path d="M18 12.75V18.6429L21.75 21" stroke="#0077B6" stroke-width="2" stroke-linecap="round" stroke-linejoin="round"/>
</svg>
