<svg width="71" height="24" viewBox="0 0 71 24" fill="none" xmlns="http://www.w3.org/2000/svg">
<path d="M5.4 19V5.2H0.216V2.008H14.064V5.2H8.856V19H5.4Z" fill="#0077B6"/>
<path d="M23.9916 19.192C22.2476 19.192 20.7596 18.84 19.5276 18.136C18.3116 17.416 17.3836 16.408 16.7436 15.112C16.1196 13.816 15.8076 12.304 15.8076 10.576C15.8076 8.816 16.1276 7.28 16.7676 5.968C17.4236 4.656 18.3596 3.64 19.5756 2.92C20.7916 2.184 22.2556 1.816 23.9676 1.816C25.2636 1.816 26.4236 2.04 27.4476 2.488C28.4716 2.92 29.2956 3.568 29.9196 4.432C30.5596 5.28 30.9596 6.328 31.1196 7.576H27.8076C27.5996 6.792 27.1756 6.176 26.5356 5.728C25.9116 5.264 25.0796 5.032 24.0396 5.032C22.8876 5.032 21.9676 5.296 21.2796 5.824C20.6076 6.336 20.1196 7.008 19.8156 7.84C19.5116 8.656 19.3596 9.52 19.3596 10.432C19.3596 11.376 19.5196 12.272 19.8396 13.12C20.1596 13.968 20.6636 14.656 21.3516 15.184C22.0556 15.712 22.9756 15.976 24.1116 15.976C24.7836 15.976 25.3836 15.88 25.9116 15.688C26.4396 15.48 26.8716 15.184 27.2076 14.8C27.5596 14.416 27.7996 13.96 27.9276 13.432H31.3596C31.2156 14.664 30.7996 15.712 30.1116 16.576C29.4236 17.44 28.5516 18.096 27.4956 18.544C26.4396 18.976 25.2716 19.192 23.9916 19.192Z" fill="#0077B6"/>
<path d="M6.32212 19V5.2H1.13812V2.008H14.9861V5.2H9.77812V19H6.32212ZM24.2436 19.192C22.4996 19.192 21.0116 18.84 19.7796 18.136C18.5636 17.416 17.6356 16.408 16.9956 15.112C16.3716 13.816 16.0596 12.304 16.0596 10.576C16.0596 8.816 16.3796 7.28 17.0196 5.968C17.6756 4.656 18.6116 3.64 19.8276 2.92C21.0436 2.184 22.5076 1.816 24.2196 1.816C25.5156 1.816 26.6756 2.04 27.6996 2.488C28.7236 2.92 29.5476 3.568 30.1716 4.432C30.8116 5.28 31.2116 6.328 31.3716 7.576H28.0596C27.8516 6.792 27.4276 6.176 26.7876 5.728C26.1636 5.264 25.3316 5.032 24.2916 5.032C23.1396 5.032 22.2196 5.296 21.5316 5.824C20.8596 6.336 20.3716 7.008 20.0676 7.84C19.7636 8.656 19.6116 9.52 19.6116 10.432C19.6116 11.376 19.7716 12.272 20.0916 13.12C20.4116 13.968 20.9156 14.656 21.6036 15.184C22.3076 15.712 23.2276 15.976 24.3636 15.976C25.0356 15.976 25.6356 15.88 26.1636 15.688C26.6916 15.48 27.1236 15.184 27.4596 14.8C27.8116 14.416 28.0516 13.96 28.1796 13.432H31.6116C31.4676 14.664 31.0516 15.712 30.3636 16.576C29.6756 17.44 28.8036 18.096 27.7476 18.544C26.6916 18.976 25.5236 19.192 24.2436 19.192ZM33.6484 19V6.352H36.6724L36.8884 7.864C37.2084 7.384 37.5684 7.024 37.9684 6.784C38.3684 6.528 38.7844 6.36 39.2164 6.28C39.6484 6.184 40.0884 6.136 40.5364 6.136C40.7444 6.136 40.9364 6.144 41.1124 6.16C41.2884 6.16 41.4164 6.16 41.4964 6.16V9.4H40.7044C39.9524 9.4 39.2964 9.528 38.7364 9.784C38.1764 10.04 37.7444 10.44 37.4404 10.984C37.1524 11.528 37.0084 12.224 37.0084 13.072V19H33.6484ZM48.7399 19.168C47.4599 19.168 46.3399 18.912 45.3799 18.4C44.4199 17.872 43.6759 17.128 43.1479 16.168C42.6199 15.192 42.3559 14.04 42.3559 12.712C42.3559 11.352 42.6199 10.184 43.1479 9.208C43.6919 8.216 44.4439 7.456 45.4039 6.928C46.3639 6.4 47.4679 6.136 48.7159 6.136C49.9959 6.136 51.1079 6.408 52.0519 6.952C52.9959 7.496 53.7319 8.256 54.2599 9.232C54.7879 10.208 55.0519 11.376 55.0519 12.736C55.0519 14.064 54.7879 15.216 54.2599 16.192C53.7479 17.152 53.0199 17.888 52.0759 18.4C51.1479 18.912 50.0359 19.168 48.7399 19.168ZM48.6919 16.096C49.4279 16.096 50.0199 15.936 50.4679 15.616C50.9159 15.296 51.2359 14.88 51.4279 14.368C51.6359 13.84 51.7399 13.288 51.7399 12.712C51.7399 12.136 51.6359 11.584 51.4279 11.056C51.2359 10.528 50.9159 10.096 50.4679 9.76C50.0359 9.408 49.4439 9.232 48.6919 9.232C47.9719 9.232 47.3879 9.408 46.9399 9.76C46.4919 10.096 46.1639 10.528 45.9559 11.056C45.7639 11.584 45.6679 12.136 45.6679 12.712C45.6679 13.304 45.7639 13.856 45.9559 14.368C46.1639 14.88 46.4919 15.296 46.9399 15.616C47.3879 15.936 47.9719 16.096 48.6919 16.096ZM57.2031 19V6.352H60.3471L60.5151 7.816C60.8671 7.384 61.2671 7.048 61.7151 6.808C62.1791 6.552 62.6431 6.376 63.1071 6.28C63.5871 6.184 64.0191 6.136 64.4031 6.136C65.6191 6.136 66.5631 6.4 67.2351 6.928C67.9231 7.456 68.4111 8.168 68.6991 9.064C69.0031 9.944 69.1551 10.928 69.1551 12.016V19H65.7951V12.448C65.7951 12.064 65.7631 11.68 65.6991 11.296C65.6351 10.912 65.5151 10.56 65.3391 10.24C65.1791 9.92 64.9471 9.664 64.6431 9.472C64.3391 9.28 63.9391 9.184 63.4431 9.184C62.8031 9.184 62.2671 9.344 61.8351 9.664C61.4031 9.984 61.0831 10.416 60.8751 10.96C60.6671 11.504 60.5631 12.104 60.5631 12.76V19H57.2031Z" fill="#13A5DF"/>
<path d="M22.4153 4V11.8571L27.0852 15" stroke="#0077B6" stroke-width="2" stroke-linecap="round" stroke-linejoin="round"/>
</svg>
