<svg width="369" height="300" viewBox="0 0 369 300" fill="none" xmlns="http://www.w3.org/2000/svg">
<rect y="150" width="369" height="118" rx="5" fill="#C50E0E"/>
<path d="M335 150C335 110.218 319.196 72.0644 291.066 43.934C262.936 15.8035 224.782 3.00349e-06 185 0C145.218 -3.00349e-06 107.064 15.8035 78.934 43.934C50.8035 72.0644 35 110.218 35 150L185 150H335Z" fill="#FE8700"/>
<path d="M291 150.5C291 121.989 279.727 94.6462 259.66 74.486C239.594 54.3259 212.378 43 184 43C155.622 43 128.406 54.3259 108.34 74.486C88.2732 94.6462 77 121.989 77 150.5L184 150.5H291Z" fill="#094907"/>
<path d="M76 147C76 174.848 87.3259 201.555 107.486 221.246C127.646 240.938 154.989 252 183.5 252C212.011 252 239.354 240.938 259.514 221.246C279.674 201.555 291 174.848 291 147L183.5 147L76 147Z" fill="#492A07"/>
<path d="M291 150C291 130.34 285.683 111.053 275.623 94.2182L183.998 150H291Z" fill="#3E61A3"/>
<path d="M93.0509 92.4035C82.473 108.872 76.592 127.916 76.0424 147.481L183.5 150.5L93.0509 92.4035Z" fill="#3E61A3"/>
<rect x="138" y="135" width="92" height="38" rx="10" fill="#D9D9D9"/>
<rect x="156.085" y="144.968" width="59.3246" height="21.9869" rx="8" fill="#031B47"/>
<rect width="20.1185" height="9.16056" rx="4.58028" transform="matrix(-0.250112 0.968217 -0.941118 -0.338077 173.128 94.097)" fill="#E0C78F"/>
<rect width="41.729" height="13.6408" rx="6.8204" transform="matrix(-0.164767 0.986333 -0.974063 -0.226278 219.951 127.329)" fill="#031B47"/>
<rect width="41.8299" height="12.8458" rx="6.4229" transform="matrix(0.121141 0.992635 -0.985903 0.167318 164.404 120.982)" fill="#031B47"/>
<rect width="41.5478" height="13.7207" rx="6.86035" transform="matrix(-0.223064 0.974804 -0.952916 -0.303233 173.342 99.1582)" fill="#031B47"/>
<rect width="20.2046" height="9.10881" rx="4.55441" transform="matrix(0.200652 0.979663 -0.96175 0.273929 207.22 92.9988)" fill="#E0C78F"/>
<rect width="41.6236" height="13.6874" rx="6.84368" transform="matrix(0.200652 0.979663 -0.96175 0.273929 211.623 96.9964)" fill="#031B47"/>
<ellipse cx="184.9" cy="154.962" rx="15.2549" ry="17.9893" fill="#1E1E1E"/>
</svg>
